<?xml version="1.0" encoding="UTF-8"?>
<svg id="moon-icon" viewBox="0 0 128 128" width="128" height="128" version="1.1" xmlns="http://www.w3.org/2000/svg" xmlns:xlink="http://www.w3.org/1999/xlink">
    <path id="moon" d="M 64 14 A 50 50 0 1 0 108 88 43 43 0 1 1 64 14 Z" fill="#2F373A" stroke="#2F373A" stroke-width="2" /> 

    <path id="star-big" d="M 75 38 a 16 16 0 0 1 -16 16 a 16 16 0 0 1 16 16 a 16 16 0 0 1 16 -16 a 16 16 0 0 1 -16 -16" fill="#2F373A" />

    <path id="star-small" d="M 90 22 a 10 10 0 0 1 -10 10 a 10 10 0 0 1 10 10 a 10 10 0 0 1 10 -10 a 10 10 0 0 1 -10 -10" fill="#2F373A"/>
</svg>
